<svg xmlns="http://www.w3.org/2000/svg" viewBox="0 0 300 400" width="300" height="400">
  <!-- Prussia placeholder: angry expression -->
  <ellipse cx="150" cy="120" rx="120" ry="100" fill="#e0e0e0"/>
  <path d="M30 120 Q50 20 150 30 Q250 20 270 120" fill="#d0d0d0"/>
  <ellipse cx="150" cy="200" rx="100" ry="120" fill="#fce4c8"/>
  <!-- Angry eyebrows -->
  <line x1="90" y1="155" x2="130" y2="165" stroke="#444" stroke-width="4"/>
  <line x1="210" y1="155" x2="170" y2="165" stroke="#444" stroke-width="4"/>
  <!-- Eyes - sharp angry -->
  <ellipse cx="110" cy="185" rx="12" ry="10" fill="#c62828"/>
  <circle cx="110" cy="185" r="5" fill="#444"/>
  <ellipse cx="190" cy="185" rx="12" ry="10" fill="#c62828"/>
  <circle cx="190" cy="185" r="5" fill="#444"/>
  <!-- Mouth - gritting teeth -->
  <path d="M120 240 L180 240" stroke="#444" stroke-width="3"/>
  <path d="M125 240 L125 248" stroke="#444" stroke-width="2"/>
  <path d="M140 240 L140 248" stroke="#444" stroke-width="2"/>
  <path d="M155 240 L155 248" stroke="#444" stroke-width="2"/>
  <path d="M170 240 L170 248" stroke="#444" stroke-width="2"/>
  <!-- Anger vein -->
  <path d="M220 130 L230 120 L225 130 L235 125" stroke="#c62828" stroke-width="2" fill="none"/>
  <!-- Uniform -->
  <path d="M70 310 L150 350 L230 310 L230 400 L70 400 Z" fill="#1a237e"/>
  <path d="M130 310 L150 350 L170 310" fill="#fff" stroke="#ccc" stroke-width="1"/>
</svg>
