<svg xmlns="http://www.w3.org/2000/svg" viewBox="0 0 300 400" width="300" height="400">
  <!-- Prussia placeholder: embarrassed expression -->
  <ellipse cx="150" cy="120" rx="120" ry="100" fill="#e0e0e0"/>
  <path d="M30 120 Q50 20 150 30 Q250 20 270 120" fill="#d0d0d0"/>
  <ellipse cx="150" cy="200" rx="100" ry="120" fill="#fce4c8"/>
  <!-- Eyes - looking away, embarrassed -->
  <ellipse cx="110" cy="185" rx="15" ry="12" fill="#fff" stroke="#444" stroke-width="2"/>
  <circle cx="103" cy="185" r="6" fill="#c62828"/>
  <ellipse cx="190" cy="185" rx="15" ry="12" fill="#fff" stroke="#444" stroke-width="2"/>
  <circle cx="183" cy="185" r="6" fill="#c62828"/>
  <!-- Eyebrows - worried -->
  <path d="M90 165 Q110 158 130 165" stroke="#444" stroke-width="2" fill="none"/>
  <path d="M170 165 Q190 158 210 165" stroke="#444" stroke-width="2" fill="none"/>
  <!-- Mouth - wobbly embarrassed -->
  <path d="M130 240 Q140 245 150 238 Q160 245 170 240" stroke="#444" stroke-width="2" fill="none"/>
  <!-- Heavy blush -->
  <ellipse cx="95" cy="210" rx="20" ry="12" fill="#ff8a80" opacity="0.7"/>
  <ellipse cx="205" cy="210" rx="20" ry="12" fill="#ff8a80" opacity="0.7"/>
  <!-- Sweat drop -->
  <path d="M230 160 Q235 175 230 185 Q225 175 230 160" fill="#90caf9"/>
  <!-- Uniform -->
  <path d="M70 310 L150 350 L230 310 L230 400 L70 400 Z" fill="#1a237e"/>
  <path d="M130 310 L150 350 L170 310" fill="#fff" stroke="#ccc" stroke-width="1"/>
</svg>
