<svg xmlns="http://www.w3.org/2000/svg" viewBox="0 0 300 400" width="300" height="400">
  <!-- Prussia placeholder: laughing expression (Kesesese!) -->
  <ellipse cx="150" cy="120" rx="120" ry="100" fill="#e0e0e0"/>
  <path d="M30 120 Q50 20 150 30 Q250 20 270 120" fill="#d0d0d0"/>
  <ellipse cx="150" cy="200" rx="100" ry="120" fill="#fce4c8"/>
  <!-- Eyes - squeezed shut laughing -->
  <path d="M95 175 L115 185 L95 195" stroke="#444" stroke-width="3" fill="none"/>
  <path d="M205 175 L185 185 L205 195" stroke="#444" stroke-width="3" fill="none"/>
  <!-- Mouth - wide open laughing -->
  <ellipse cx="150" cy="240" rx="35" ry="25" fill="#444"/>
  <path d="M120 235 Q150 220 180 235" fill="#fff"/>
  <!-- Blush -->
  <ellipse cx="95" cy="210" rx="15" ry="10" fill="#ffcccc" opacity="0.6"/>
  <ellipse cx="205" cy="210" rx="15" ry="10" fill="#ffcccc" opacity="0.6"/>
  <!-- Uniform -->
  <path d="M70 310 L150 350 L230 310 L230 400 L70 400 Z" fill="#1a237e"/>
  <path d="M130 310 L150 350 L170 310" fill="#fff" stroke="#ccc" stroke-width="1"/>
</svg>
