<svg xmlns="http://www.w3.org/2000/svg" viewBox="0 0 300 400" width="300" height="400">
  <!-- Prussia placeholder: proud/smug expression -->
  <ellipse cx="150" cy="120" rx="120" ry="100" fill="#e0e0e0"/>
  <path d="M30 120 Q50 20 150 30 Q250 20 270 120" fill="#d0d0d0"/>
  <ellipse cx="150" cy="200" rx="100" ry="120" fill="#fce4c8"/>
  <!-- Eyes - confident half-lidded -->
  <ellipse cx="110" cy="185" rx="15" ry="8" fill="#fff" stroke="#444" stroke-width="2"/>
  <circle cx="115" cy="185" r="5" fill="#c62828"/>
  <ellipse cx="190" cy="185" rx="15" ry="8" fill="#fff" stroke="#444" stroke-width="2"/>
  <circle cx="195" cy="185" r="5" fill="#c62828"/>
  <!-- Smug eyebrows raised -->
  <line x1="88" y1="168" x2="132" y2="162" stroke="#444" stroke-width="3"/>
  <line x1="168" y1="162" x2="212" y2="168" stroke="#444" stroke-width="3"/>
  <!-- Smirk -->
  <path d="M120 235 Q150 255 180 230" stroke="#444" stroke-width="3" fill="none"/>
  <!-- Sparkle effects -->
  <polygon points="230,100 235,110 245,112 237,118 239,128 230,122 221,128 223,118 215,112 225,110" fill="#ffd600" opacity="0.8"/>
  <polygon points="70,90 73,97 80,98 75,102 76,109 70,105 64,109 65,102 60,98 67,97" fill="#ffd600" opacity="0.6"/>
  <!-- Light blush -->
  <ellipse cx="95" cy="210" rx="12" ry="8" fill="#ffcccc" opacity="0.3"/>
  <ellipse cx="205" cy="210" rx="12" ry="8" fill="#ffcccc" opacity="0.3"/>
  <!-- Uniform -->
  <path d="M70 310 L150 350 L230 310 L230 400 L70 400 Z" fill="#1a237e"/>
  <path d="M130 310 L150 350 L170 310" fill="#fff" stroke="#ccc" stroke-width="1"/>
</svg>
